<svg xmlns="http://www.w3.org/2000/svg" viewBox="0 0 1280 800" role="img" aria-labelledby="title desc">
  <title id="title">Paris evening walk placeholder highlight</title>
  <desc id="desc">Temporary placeholder graphic for Paris evening walk highlight cards.</desc>
  <defs>
    <linearGradient id="bg" x1="0" y1="0" x2="1" y2="1">
      <stop offset="0%" stop-color="#31476b" />
      <stop offset="55%" stop-color="#7e96b2" />
      <stop offset="100%" stop-color="#ead0a6" />
    </linearGradient>
  </defs>
  <rect width="1280" height="800" fill="url(#bg)" />
  <path d="M0 560C130 520 230 520 360 556C492 592 602 660 760 648C908 636 1024 548 1164 534C1206 530 1244 530 1280 536V800H0Z" fill="#1f2c41" opacity="0.78" />
  <path d="M0 654C152 626 304 610 462 630C646 654 828 722 1010 718C1118 716 1208 686 1280 658V800H0Z" fill="#95b6c6" opacity="0.9" />
  <g transform="translate(882 162)" fill="none" stroke="#111827" stroke-width="16" stroke-linecap="round">
    <path d="M74 0L30 300" />
    <path d="M118 0L162 300" />
    <path d="M0 92H148" />
    <path d="M20 160H128" />
    <path d="M40 228H108" />
  </g>
  <text x="72" y="106" fill="#fffaf3" font-family="Arial, Helvetica, sans-serif" font-size="34" letter-spacing="6">TEMPORARY HIGHLIGHT PLACEHOLDER</text>
  <text x="72" y="714" fill="#fffaf3" font-family="Georgia, 'Times New Roman', serif" font-size="64">Paris Evening Walk</text>
</svg>
